<svg id="Layer_1" data-name="Layer 1" xmlns="http://www.w3.org/2000/svg" viewBox="0 0 186 186"><defs><style>.cls-1{fill:#f8f7f9;stroke:#000;stroke-miterlimit:10;}.cls-2{fill:#1b0749;}</style></defs><title>logo web icon</title><circle class="cls-1" cx="93" cy="93" r="92.5"/><path class="cls-2" d="M412.21,664.15a14.33,14.33,0,0,1-3.4.43,7.29,7.29,0,0,1-4.15-1,3.43,3.43,0,0,1-1.54-2.88c0-2.32,2.28-4,6-4a9.42,9.42,0,0,1,2.76.36l-.34.81a8,8,0,0,0-2.45-.33c-2.7,0-4.46,1.17-4.46,3.12s1.7,3.13,4.28,3.13a6.22,6.22,0,0,0,1.9-.21v-2.31h-2.25v-.81h3.65Z" transform="translate(-310 -531)"/><path class="cls-2" d="M414.38,656.85a20,20,0,0,1,2.74-.16,6,6,0,0,1,3.21.63,1.7,1.7,0,0,1,.87,1.47c0,1-.92,1.7-2.09,2v0a2.17,2.17,0,0,1,1.63,1.57,9.49,9.49,0,0,0,.86,2.12h-1.48a7.57,7.57,0,0,1-.74-1.85c-.33-1.07-.93-1.47-2.22-1.5h-1.35v3.35h-1.43Zm1.43,3.53h1.46c1.53,0,2.5-.59,2.5-1.47s-1-1.44-2.55-1.45a7.93,7.93,0,0,0-1.41.09Z" transform="translate(-310 -531)"/><path class="cls-2" d="M432.73,660.54c0,2.67-2.32,4.08-5.15,4.08s-5-1.58-5-3.93,2.18-4.07,5.15-4.07S432.73,658.24,432.73,660.54Zm-8.6.13a3.56,3.56,0,1,0,3.55-3.24A3.22,3.22,0,0,0,424.13,660.67Z" transform="translate(-310 -531)"/><path class="cls-2" d="M436,656.74v4.59a2.29,2.29,0,0,0,2.58,2.47c1.65,0,2.7-.75,2.7-2.47v-4.59h1.45v4.52c0,2.38-1.8,3.36-4.2,3.36s-4-.91-4-3.31v-4.57Z" transform="translate(-310 -531)"/><path class="cls-2" d="M445.18,656.83a23.92,23.92,0,0,1,2.74-.14,5.92,5.92,0,0,1,3.11.64,1.86,1.86,0,0,1,1,1.62,2,2,0,0,1-.85,1.66,5.9,5.9,0,0,1-3.39.85,6.69,6.69,0,0,1-1.15-.07v3.1h-1.43Zm1.43,3.74a6.48,6.48,0,0,0,1.18.08c1.73,0,2.78-.58,2.78-1.65s-1-1.52-2.61-1.52a9.35,9.35,0,0,0-1.35.08Z" transform="translate(-310 -531)"/><path class="cls-2" d="M412.21,664.91a14.44,14.44,0,0,1-3.4.42,7.37,7.37,0,0,1-4.15-1,3.45,3.45,0,0,1-1.54-2.89c0-2.31,2.28-4,6-4a9.42,9.42,0,0,1,2.76.36l-.34.81a8,8,0,0,0-2.45-.33c-2.7,0-4.46,1.17-4.46,3.12s1.7,3.12,4.28,3.12a6.68,6.68,0,0,0,1.9-.2V662h-2.25v-.81h3.65Z" transform="translate(-310 -531)"/><path class="cls-2" d="M414.38,657.61a19.88,19.88,0,0,1,2.74-.17,5.94,5.94,0,0,1,3.21.64,1.7,1.7,0,0,1,.87,1.47c0,1-.92,1.7-2.09,2v0a2.17,2.17,0,0,1,1.63,1.57,9.49,9.49,0,0,0,.86,2.12h-1.48a7.76,7.76,0,0,1-.74-1.85c-.33-1.07-.93-1.47-2.22-1.5h-1.35v3.35h-1.43Zm1.43,3.53h1.46c1.53,0,2.5-.59,2.5-1.47s-1-1.44-2.55-1.45a7.93,7.93,0,0,0-1.41.09Z" transform="translate(-310 -531)"/><path class="cls-2" d="M432.73,661.3c0,2.67-2.32,4.08-5.15,4.08s-5-1.59-5-3.93,2.18-4.07,5.15-4.07S432.73,659,432.73,661.3Zm-8.6.12a3.56,3.56,0,1,0,3.55-3.23A3.22,3.22,0,0,0,424.13,661.42Z" transform="translate(-310 -531)"/><path class="cls-2" d="M436,657.5v4.59a2.29,2.29,0,0,0,2.58,2.47c1.65,0,2.7-.76,2.7-2.47V657.5h1.45V662c0,2.38-1.8,3.36-4.2,3.36s-4-.91-4-3.31V657.5Z" transform="translate(-310 -531)"/><path class="cls-2" d="M445.18,657.59a23.55,23.55,0,0,1,2.74-.15,5.91,5.91,0,0,1,3.11.65,1.86,1.86,0,0,1,1,1.62,2,2,0,0,1-.85,1.66,5.9,5.9,0,0,1-3.39.85,6.69,6.69,0,0,1-1.15-.07v3.1h-1.43Zm1.43,3.74a6.48,6.48,0,0,0,1.18.08c1.73,0,2.78-.59,2.78-1.65s-1-1.52-2.61-1.52a8.07,8.07,0,0,0-1.35.08Z" transform="translate(-310 -531)"/><path class="cls-2" d="M437.6,597H408.73q-13.32,0-13.32-8.38a7.79,7.79,0,0,1,2.24-5.59,7.17,7.17,0,0,1,5.36-2.33,6.08,6.08,0,0,1,4.07,1.48,4.45,4.45,0,0,1,1.74,3.49q0,3.42-2.86,4l-2.14.39q-1.08.22-1.08.78c0,.67,1,1,2.95,1h32.17Z" transform="translate(-310 -531)"/><path class="cls-2" d="M448.67,604.06V639l-3.23.82-.58-35.91" transform="translate(-310 -531)"/><path class="cls-2" d="M446.33,654l-39.61.15-.06-3.1,2.52-.1h37.15Z" transform="translate(-310 -531)"/><path class="cls-2" d="M448.39,552.18l-14.83,28.57q-1.43-12.18-7.82-18.63t-16.85-6.44q-14.92,0-23.2,11.33t-8.29,31.75q0,44.94,37.59,45h12.78V597l-3.76-5.2H454.5l-10.95,10.48v38.27l10.16,8.54H405.16q-10.08,0-16.66-2.4a41.27,41.27,0,0,1-13.32-8.55q-15.94-14.28-15.95-38.26,0-24.76,15.07-38.66A44.45,44.45,0,0,1,405.56,549a72.76,72.76,0,0,1,18.56,2.8q10.71,2.87,14.12,2.87A23.22,23.22,0,0,0,448.39,552.18Z" transform="translate(-310 -531)"/><path class="cls-2" d="M433.1,582.42c-1.07-8.12-6.2-16-11-20.3s-11.13-6.44-19-6.44q-16.82,0-26.14,11.33t-9.34,31.75q0,44.94,42.36,45h14.39V597h-8l38.13-5.2-12.33,10.48v38.27l11.43,8.54H398.91q-11.36,0-18.77-2.4a47.74,47.74,0,0,1-15-8.55q-18-14.28-18-38.26,0-24.76,17-38.66Q379,549,399.35,549a91.72,91.72,0,0,1,20.92,2.8q12.06,2.87,15.91,2.87C439.93,554.67,433.1,582.42,433.1,582.42Z" transform="translate(-310 -531)"/><path class="cls-2" d="M371.28,680.43H354.14v9.72h18.78l-.39,1.65h-21V668.66h20.61v1.66h-18v8.46h17.14Z" transform="translate(-310 -531)"/><path class="cls-2" d="M400.29,691.8l-10.14-10.41h0l-10,10.41h-3L388.52,680l-11-11.38h3l9.6,9.89h.05l9.8-9.89h3L391.69,679.9l11.67,11.9Z" transform="translate(-310 -531)"/><path class="cls-2" d="M411.57,668.66V691.8H409V668.66Z" transform="translate(-310 -531)"/><path class="cls-2" d="M450.57,681.16c0-4.53.05-8.86.19-11.17h-.14c-1.35,3.1-8.17,14.51-12.44,21.81h-2.55c-3.22-5.65-10.28-18.34-11.81-21.85h-.1c.24,2.65.34,8,.34,12v9.85h-2.6V668.66h3.89C430,676.6,435.78,687,437,689.59h.09c.77-1.69,7.49-13.22,12.2-20.93h3.84V691.8h-2.59Z" transform="translate(-310 -531)"/></svg>